<?xml version="1.0" encoding="UTF-8"?>
<svg id="Layer_2" data-name="Layer 2" xmlns="http://www.w3.org/2000/svg" xmlns:xlink="http://www.w3.org/1999/xlink" viewBox="0 0 722.56 215.44">
  <defs>
    <style>
      .cls-1 {
        fill: url(#linear-gradient-4);
      }

      .cls-2 {
        fill: url(#linear-gradient-3);
      }

      .cls-3 {
        fill: url(#linear-gradient);
      }

      .cls-4 {
        fill: none;
        stroke: url(#linear-gradient-2);
        stroke-miterlimit: 10;
      }

      .cls-5 {
        fill: #848484;
      }

      .cls-6 {
        fill: #fff;
      }
    </style>
    <linearGradient id="linear-gradient" x1="332.64" y1="62.27" x2="325.44" y2="46.92" gradientUnits="userSpaceOnUse">
      <stop offset="0" stop-color="#fbb03b"/>
      <stop offset="1" stop-color="#fe611f"/>
    </linearGradient>
    <linearGradient id="linear-gradient-2" x1="98.93" y1="154.1" x2="722.56" y2="154.1" xlink:href="#linear-gradient"/>
    <linearGradient id="linear-gradient-3" x1="115.9" y1="176.15" x2="95.19" y2="132.04" xlink:href="#linear-gradient"/>
    <linearGradient id="linear-gradient-4" x1="202.57" y1="221.2" x2="103.3" y2="9.71" xlink:href="#linear-gradient"/>
  </defs>
  <g id="Layer_1-2" data-name="Layer 1">
    <g>
      <g>
        <path class="cls-6" d="M252.8,182.33l-3.93,1.19c-.17-.96-.67-1.83-1.49-2.62-.83-.79-2.02-1.19-3.57-1.19-1.29,0-2.35.35-3.19,1.05s-1.26,1.54-1.26,2.52c0,1.7,1.01,2.76,3.02,3.18l3.72.73c2.23.42,3.96,1.27,5.17,2.55s1.82,2.81,1.82,4.58c0,2.05-.82,3.82-2.46,5.3-1.64,1.48-3.87,2.22-6.69,2.22-3.04,0-5.4-.76-7.1-2.29-1.7-1.53-2.66-3.3-2.88-5.33l4.08-1.12c.15,1.4.73,2.58,1.75,3.53,1.02.96,2.4,1.43,4.15,1.43,1.51,0,2.67-.32,3.48-.96s1.22-1.46,1.22-2.46c0-.82-.3-1.52-.91-2.12-.61-.59-1.46-1.01-2.55-1.24l-3.64-.73c-2.02-.4-3.61-1.2-4.79-2.41-1.18-1.21-1.77-2.73-1.77-4.54,0-2.07.86-3.86,2.59-5.35s3.79-2.24,6.19-2.24c2.74,0,4.85.64,6.3,1.91,1.46,1.27,2.37,2.74,2.73,4.42Z"/>
        <path class="cls-6" d="M277.65,201.84c-3.62,0-6.7-1.18-9.24-3.53-2.54-2.35-3.81-5.48-3.81-9.37s1.29-6.99,3.86-9.37c2.57-2.38,5.62-3.57,9.14-3.57,3.11,0,5.67.76,7.67,2.27s3.32,3.44,3.95,5.77l-4.12,1.33c-.41-1.61-1.25-2.91-2.51-3.92-1.26-1-2.93-1.5-4.99-1.5-2.31,0-4.31.79-5.99,2.36-1.69,1.57-2.53,3.78-2.53,6.62s.84,4.95,2.51,6.52,3.69,2.36,6.05,2.36c2.02,0,3.68-.52,4.99-1.57s2.21-2.34,2.7-3.88l4.01,1.26c-.63,2.31-1.96,4.25-3.99,5.84s-4.6,2.38-7.71,2.38Z"/>
        <path class="cls-6" d="M302.44,195.82c-1.25-2-1.88-4.31-1.88-6.92s.62-4.91,1.88-6.9,2.86-3.49,4.83-4.49c1.97-1,4.1-1.5,6.41-1.5s4.45.5,6.41,1.5c1.97,1,3.58,2.5,4.85,4.49,1.26,1.99,1.89,4.29,1.89,6.9s-.63,4.92-1.89,6.92c-1.26,2-2.88,3.51-4.85,4.51-1.97,1-4.11,1.5-6.41,1.5s-4.45-.5-6.41-1.5c-1.97-1-3.58-2.5-4.83-4.51ZM307.6,182.31c-1.7,1.57-2.55,3.77-2.55,6.59s.85,5.02,2.55,6.59c1.7,1.57,3.73,2.36,6.08,2.36s4.39-.79,6.1-2.36c1.71-1.57,2.57-3.77,2.57-6.59s-.86-5.02-2.57-6.59c-1.71-1.57-3.75-2.36-6.1-2.36s-4.38.79-6.08,2.36Z"/>
        <path class="cls-6" d="M357.84,180.48h-8.42v20.83h-4.37v-20.83h-8.38v-3.95h21.17v3.95Z"/>
        <path class="cls-6" d="M389.32,180.48h-8.42v20.83h-4.37v-20.83h-8.38v-3.95h21.17v3.95Z"/>
        <path class="cls-6" d="M440.11,201.31h-4.41v-10.59h-12.13v10.59h-4.37v-24.78h4.37v10.24h12.13v-10.24h4.41v24.78Z"/>
        <path class="cls-6" d="M472.61,201.31l-2.44-6.22h-10.93l-2.41,6.22h-4.63l10.06-24.78h5.06l10.06,24.78h-4.77ZM464.7,181.07l-3.93,10.14h7.87l-3.93-10.14Z"/>
        <path class="cls-6" d="M505.09,199.42c-1.81,1.61-4.12,2.41-6.94,2.41s-5.12-.8-6.92-2.41c-1.8-1.61-2.7-3.86-2.7-6.75v-16.15h4.34v15.91c0,1.72.47,3.06,1.4,4,.93.94,2.23,1.42,3.88,1.42s2.98-.47,3.9-1.4c.92-.93,1.38-2.27,1.38-4.02v-15.91h4.37v16.15c0,2.89-.91,5.14-2.71,6.75Z"/>
        <path class="cls-6" d="M539.32,182.33l-3.93,1.19c-.17-.96-.67-1.83-1.49-2.62-.83-.79-2.02-1.19-3.57-1.19-1.29,0-2.35.35-3.19,1.05s-1.26,1.54-1.26,2.52c0,1.7,1.01,2.76,3.02,3.18l3.72.73c2.23.42,3.96,1.27,5.17,2.55s1.82,2.81,1.82,4.58c0,2.05-.82,3.82-2.46,5.3-1.64,1.48-3.87,2.22-6.69,2.22-3.04,0-5.4-.76-7.1-2.29-1.7-1.53-2.66-3.3-2.88-5.33l4.08-1.12c.15,1.4.73,2.58,1.75,3.53,1.02.96,2.4,1.43,4.15,1.43,1.51,0,2.67-.32,3.48-.96s1.22-1.46,1.22-2.46c0-.82-.3-1.52-.91-2.12-.61-.59-1.46-1.01-2.55-1.24l-3.64-.73c-2.02-.4-3.61-1.2-4.79-2.41-1.18-1.21-1.77-2.73-1.77-4.54,0-2.07.86-3.86,2.59-5.35s3.79-2.24,6.19-2.24c2.74,0,4.85.64,6.3,1.91,1.46,1.27,2.37,2.74,2.73,4.42Z"/>
        <path class="cls-6" d="M568.76,201.31h-15.96v-24.78h15.96v3.92h-11.59v6.57h10.49v3.81h-10.49v6.57h11.59v3.92Z"/>
        <path class="cls-6" d="M623.23,201.31h-3.53l-.33-3.15c-.63,1.03-1.63,1.89-2.99,2.6-1.36.71-3,1.07-4.92,1.07-3.52,0-6.52-1.17-9-3.51-2.48-2.34-3.72-5.48-3.72-9.42,0-2.61.62-4.92,1.88-6.92,1.25-2,2.85-3.5,4.79-4.49,1.94-.99,4.06-1.49,6.34-1.49,2.99,0,5.5.71,7.52,2.13,2.03,1.42,3.41,3.23,4.13,5.42l-4.12,1.5c-.46-1.49-1.35-2.73-2.66-3.71s-2.94-1.47-4.88-1.47c-2.31,0-4.31.78-6.01,2.34s-2.55,3.79-2.55,6.68.83,5.1,2.48,6.69c1.65,1.6,3.67,2.39,6.05,2.39s4.11-.59,5.34-1.76c1.23-1.18,1.91-2.44,2.06-3.79h-8.53v-3.67h12.64v12.55Z"/>
        <path class="cls-6" d="M637.45,195.82c-1.25-2-1.88-4.31-1.88-6.92s.62-4.91,1.88-6.9,2.86-3.49,4.83-4.49c1.97-1,4.1-1.5,6.41-1.5s4.45.5,6.41,1.5c1.97,1,3.58,2.5,4.85,4.49,1.26,1.99,1.89,4.29,1.89,6.9s-.63,4.92-1.89,6.92c-1.26,2-2.88,3.51-4.85,4.51-1.97,1-4.11,1.5-6.41,1.5s-4.45-.5-6.41-1.5c-1.97-1-3.58-2.5-4.83-4.51ZM642.61,182.31c-1.7,1.57-2.55,3.77-2.55,6.59s.85,5.02,2.55,6.59c1.7,1.57,3.73,2.36,6.08,2.36s4.39-.79,6.1-2.36c1.71-1.57,2.57-3.77,2.57-6.59s-.86-5.02-2.57-6.59c-1.71-1.57-3.75-2.36-6.1-2.36s-4.38.79-6.08,2.36Z"/>
        <path class="cls-6" d="M691.32,201.31h-16.21v-24.78h4.37v20.8h11.84v3.99Z"/>
        <path class="cls-6" d="M708.34,201.31h-4.37v-24.78h16.07v3.95h-11.7v6.96h10.49v3.88h-10.49v10Z"/>
      </g>
      <g>
        <path class="cls-6" d="M252.14,64.83c-15.27,0-25.85-10.68-25.85-26.28s10.47-26.28,24.35-26.28c7.48,0,12.39,2.03,16.88,5.02l5.87-9.72c-4.91-4.49-13.03-7.58-22.75-7.58-24.67,0-38.24,17.09-38.24,38.56,0,23.28,15.7,38.56,38.56,38.56,9.72,0,19.23-3.42,23.93-8.44l-5.02-9.83c-5.13,3.95-11.43,5.98-17.73,5.98Z"/>
        <polygon class="cls-6" points="353.08 75.94 367.08 75.94 335.46 .96 323.92 .96 292.31 75.94 305.55 75.94 313.43 56.82 329.37 17.94 353.08 75.94"/>
        <polygon class="cls-6" points="431.7 36.1 406.17 1.17 392.93 1.17 392.93 75.94 406.07 75.94 406.07 22.22 429.88 55.11 431.81 55.11 455.41 21.9 455.41 75.94 468.44 75.94 468.44 1.17 456.05 1.17 431.7 36.1"/>
        <path class="cls-6" d="M525.06.96c-5.23,0-17.09.21-21.26.21v74.77h13.14v-27.02c3.2.32,7.48.32,9.72.32,17.84,0,27.34-11.54,27.34-24.25s-6.94-24.03-28.95-24.03ZM526.23,36.96c-2.99,0-6.2-.21-9.29-.53V13.46c3.52-.11,6.73-.21,9.4-.21,8.97,0,13.78,3.85,13.78,11.64,0,8.33-6.09,12.07-13.89,12.07Z"/>
        <path class="cls-6" d="M631.23,42.3c0,14.53-5.34,22.54-16.66,22.54-12.92,0-18.69-9.4-18.69-23.39V1.17h-13.14v43.04c0,21.9,13.24,32.9,31.83,32.9,15.7,0,29.69-9.29,29.69-32.15V1.17h-13.03v41.12Z"/>
        <path class="cls-6" d="M688.7,20.51c0-4.91,3.95-8.22,10.47-8.22,5.98,0,9.61,2.03,13.25,5.55l7.05-9.83c-4.49-4.91-12.18-8.01-21.36-8.01-14.53,0-23.29,9.4-23.29,20.61,0,24.35,33.86,20.72,33.86,35.46,0,5.66-4.7,8.76-10.89,8.76-5.77,0-12.82-2.78-17.2-8.44l-7.48,8.97c3.63,7.58,14.85,11.75,24.46,11.75,13.99,0,24.99-8.54,24.99-21.15,0-24.89-33.86-19.97-33.86-35.46Z"/>
      </g>
      <path class="cls-3" d="M337.52,54.59c0-4.68-3.8-8.48-8.48-8.48s-8.48,3.8-8.48,8.48,3.8,8.48,8.48,8.48,8.48-3.8,8.48-8.48Z"/>
      <g>
        <path class="cls-5" d="M406.11,99.96h3.04l12.55,28.17h-3.79l-3.75-8.48h-13.3l-3.71,8.48h-3.59l12.55-28.17ZM402.27,116.45h10.51l-5.25-11.96-5.26,11.96Z"/>
        <path class="cls-5" d="M468.29,125.41c-1.96,1.92-5.59,3.12-9.21,3.12-8.76,0-14.8-5.68-14.8-14.4,0-8.04,5.42-14.4,14.55-14.4,3.75,0,6.8,1,8.88,2.72l-1.62,2.56c-1.92-1.36-4.17-2.08-7.21-2.08-6.34,0-10.84,4.56-10.84,11.2s4.63,11.2,11.38,11.2c2.79,0,5.46-.92,7.46-2.48l1.42,2.56Z"/>
        <path class="cls-5" d="M503.08,99.96h3.04l12.55,28.17h-3.79l-3.75-8.48h-13.3l-3.71,8.48h-3.59l12.55-28.17ZM499.24,116.45h10.51l-5.25-11.96-5.26,11.96Z"/>
        <path class="cls-5" d="M544.53,100.12h.5c1.92,0,5.09-.12,7.46-.12,11.68,0,16.39,6.44,16.39,13.76,0,7.96-5.59,14.44-16.72,14.44-1.96,0-4.71-.08-7.17-.08h-.46v-28.01ZM548.08,103.32v21.6c1.92.04,3.71.08,4.21.08,8.34,0,12.84-4.72,12.84-11.24,0-6.08-4.25-10.56-12.72-10.56-1.75,0-2.88.08-4.34.12Z"/>
        <path class="cls-5" d="M596.21,100.12h16.47v3.2h-12.93v9.04h11.68v3.2h-11.68v9.36h13.35v3.2h-16.89v-28.01Z"/>
        <path class="cls-5" d="M641.05,100.12h3.59l10.97,14.36,10.51-14.36h3.38v28.01h-3.54v-22.64l-10.34,13.92h-.54l-10.47-13.8v22.52h-3.54v-28.01Z"/>
        <path class="cls-5" d="M709.03,116.13v12h-3.54v-12l-10.34-16h4.09l8.17,12.8,8.21-12.8h3.88l-10.47,16Z"/>
      </g>
      <line class="cls-4" x1="98.93" y1="154.1" x2="722.56" y2="154.1"/>
      <polygon class="cls-6" points="174.63 215.44 214.83 215.44 123.99 0 90.84 0 0 215.44 38.06 215.44 60.69 160.51 106.49 48.8 174.63 215.44"/>
      <path class="cls-2" d="M129.91,154.1c0-13.44-10.93-24.37-24.36-24.37s-24.37,10.93-24.37,24.37,10.93,24.37,24.37,24.37,24.36-10.93,24.36-24.37Z"/>
      <polygon class="cls-1" points="106.49 48.8 123.99 0 214.83 215.44 174.63 215.44 106.49 48.8"/>
    </g>
  </g>
</svg>